# xmcd
#
# Track frame offsets:
#	150
#	19176
#	34296
#	49370
#	76703
#	94336
#	110113
#	125513
#	142891
#	163558
#	178976
#	197188
#	213673
#	235754
#
# Disc length: 3451 seconds
#
# Revision: 1
# Processed by: cddbd v1.5.2PL0 Copyright (c) Steve Scherf et al.
# Submitted via: audiograbber 1.83.01
#
DISCID=ca0d790e
DTITLE=T Graham Brown - Lives!
DYEAR=2001
DGENRE=Country
TTITLE0=Happy Ever After
TTITLE1=I Tell It Like It Used To Be
TTITLE2=I Wish That I Could Hurt That Way Again
TTITLE3=Memphis Women and Chicken
TTITLE4=Wine Into Water
TTITLE5=Darlene
TTITLE6=Come As You Were
TTITLE7=Hide and Seek
TTITLE8=Good Days Bad Days
TTITLE9=Keep Me From Blowing Away
TTITLE10=Accept My Love
TTITLE11=Hell and High Water
TTITLE12=Livin' On Love
TTITLE13=Dock Of The Bay
EXTD=
EXTT0=
EXTT1=
EXTT2=
EXTT3=
EXTT4=
EXTT5=
EXTT6=
EXTT7=
EXTT8=
EXTT9=
EXTT10=
EXTT11=
EXTT12=
EXTT13=
PLAYORDER=
